<mxfile host="app.diagrams.net" modified="2022-08-11T14:49:47.766Z" agent="5.0 (Windows NT 10.0; Win64; x64) AppleWebKit/537.36 (KHTML, like Gecko) Chrome/104.0.0.0 Safari/537.36" etag="UCAiiYEBGSB_TOhrsRL6" version="20.2.3" type="github">
  <diagram id="1azDhflqON5MBl217W90" name="Page-1">
    <mxGraphModel dx="1038" dy="539" grid="1" gridSize="10" guides="1" tooltips="1" connect="1" arrows="1" fold="1" page="1" pageScale="1" pageWidth="850" pageHeight="1100" math="0" shadow="0">
      <root>
        <mxCell id="0" />
        <mxCell id="1" parent="0" />
        <mxCell id="ELlxLEUAhB1l8peIm1cY-11" style="edgeStyle=orthogonalEdgeStyle;rounded=0;orthogonalLoop=1;jettySize=auto;html=1;entryX=0.5;entryY=1;entryDx=0;entryDy=0;" edge="1" parent="1" source="ELlxLEUAhB1l8peIm1cY-1" target="ELlxLEUAhB1l8peIm1cY-5">
          <mxGeometry relative="1" as="geometry" />
        </mxCell>
        <mxCell id="ELlxLEUAhB1l8peIm1cY-1" value="" style="dashed=0;outlineConnect=0;html=1;align=center;labelPosition=center;verticalLabelPosition=bottom;verticalAlign=top;shape=mxgraph.weblogos.github" vertex="1" parent="1">
          <mxGeometry x="252.5" y="260" width="75" height="75" as="geometry" />
        </mxCell>
        <mxCell id="ELlxLEUAhB1l8peIm1cY-10" style="edgeStyle=orthogonalEdgeStyle;rounded=0;orthogonalLoop=1;jettySize=auto;html=1;" edge="1" parent="1" source="ELlxLEUAhB1l8peIm1cY-2" target="ELlxLEUAhB1l8peIm1cY-3">
          <mxGeometry relative="1" as="geometry" />
        </mxCell>
        <mxCell id="ELlxLEUAhB1l8peIm1cY-2" value="" style="outlineConnect=0;dashed=0;verticalLabelPosition=bottom;verticalAlign=top;align=center;html=1;shape=mxgraph.aws3.elastic_beanstalk;fillColor=#F58534;gradientColor=none;" vertex="1" parent="1">
          <mxGeometry x="540" y="120" width="60" height="80.5" as="geometry" />
        </mxCell>
        <mxCell id="ELlxLEUAhB1l8peIm1cY-3" value="" style="outlineConnect=0;dashed=0;verticalLabelPosition=bottom;verticalAlign=top;align=center;html=1;shape=mxgraph.aws3.s3;fillColor=#E05243;gradientColor=none;" vertex="1" parent="1">
          <mxGeometry x="535" y="270" width="70" height="83" as="geometry" />
        </mxCell>
        <mxCell id="ELlxLEUAhB1l8peIm1cY-9" style="edgeStyle=orthogonalEdgeStyle;rounded=0;orthogonalLoop=1;jettySize=auto;html=1;" edge="1" parent="1" source="ELlxLEUAhB1l8peIm1cY-4" target="ELlxLEUAhB1l8peIm1cY-2">
          <mxGeometry relative="1" as="geometry" />
        </mxCell>
        <mxCell id="ELlxLEUAhB1l8peIm1cY-4" value="" style="outlineConnect=0;dashed=0;verticalLabelPosition=bottom;verticalAlign=top;align=center;html=1;shape=mxgraph.aws3.iam;fillColor=#759C3E;gradientColor=none;" vertex="1" parent="1">
          <mxGeometry x="425" y="119.5" width="42" height="81" as="geometry" />
        </mxCell>
        <mxCell id="ELlxLEUAhB1l8peIm1cY-8" style="edgeStyle=orthogonalEdgeStyle;rounded=0;orthogonalLoop=1;jettySize=auto;html=1;" edge="1" parent="1" source="ELlxLEUAhB1l8peIm1cY-5" target="ELlxLEUAhB1l8peIm1cY-4">
          <mxGeometry relative="1" as="geometry" />
        </mxCell>
        <mxCell id="ELlxLEUAhB1l8peIm1cY-5" value="Travis" style="rounded=0;whiteSpace=wrap;html=1;" vertex="1" parent="1">
          <mxGeometry x="230" y="130" width="120" height="60" as="geometry" />
        </mxCell>
        <mxCell id="ELlxLEUAhB1l8peIm1cY-12" style="edgeStyle=orthogonalEdgeStyle;rounded=0;orthogonalLoop=1;jettySize=auto;html=1;" edge="1" parent="1" source="ELlxLEUAhB1l8peIm1cY-6" target="ELlxLEUAhB1l8peIm1cY-1">
          <mxGeometry relative="1" as="geometry" />
        </mxCell>
        <mxCell id="ELlxLEUAhB1l8peIm1cY-6" value="" style="shape=mxgraph.signs.tech.computer;html=1;pointerEvents=1;fillColor=#000000;strokeColor=none;verticalLabelPosition=bottom;verticalAlign=top;align=center;" vertex="1" parent="1">
          <mxGeometry x="246" y="400" width="88" height="80" as="geometry" />
        </mxCell>
        <mxCell id="ELlxLEUAhB1l8peIm1cY-13" style="edgeStyle=orthogonalEdgeStyle;rounded=0;orthogonalLoop=1;jettySize=auto;html=1;" edge="1" parent="1" source="ELlxLEUAhB1l8peIm1cY-7" target="ELlxLEUAhB1l8peIm1cY-3">
          <mxGeometry relative="1" as="geometry" />
        </mxCell>
        <mxCell id="ELlxLEUAhB1l8peIm1cY-7" value="" style="shape=actor;whiteSpace=wrap;html=1;" vertex="1" parent="1">
          <mxGeometry x="539.13" y="400" width="61.75" height="80" as="geometry" />
        </mxCell>
      </root>
    </mxGraphModel>
  </diagram>
</mxfile>
